<?xml version="1.0" encoding="UTF-8" standalone="no"?>
<!-- Created with Inkscape (http://www.inkscape.org/) -->

<svg
   width="191.10927mm"
   height="40.313812mm"
   viewBox="0 0 191.10927 40.313812"
   version="1.1"
   id="svg5"
   xmlns:inkscape="http://www.inkscape.org/namespaces/inkscape"
   xmlns:sodipodi="http://sodipodi.sourceforge.net/DTD/sodipodi-0.dtd"
   xmlns="http://www.w3.org/2000/svg"
   xmlns:svg="http://www.w3.org/2000/svg">
  <sodipodi:namedview
     id="namedview7"
     pagecolor="#ffffff"
     bordercolor="#000000"
     borderopacity="0.25"
     inkscape:showpageshadow="2"
     inkscape:pageopacity="0.0"
     inkscape:pagecheckerboard="0"
     inkscape:deskcolor="#d1d1d1"
     inkscape:document-units="mm"
     showgrid="false" />
  <defs
     id="defs2" />
  <g
     inkscape:label="Layer 1"
     inkscape:groupmode="layer"
     id="layer1"
     transform="translate(-8.4454793,-172.42568)">
    <rect
       style="fill:#000000;fill-opacity:1;stroke:none;stroke-width:2.2;stroke-linecap:square"
       id="rect1659"
       width="208"
       height="208"
       x="0"
       y="88.582718" />
    <rect
       style="display:none;fill:#26adec;fill-opacity:0.534884;stroke:none;stroke-width:2.2;stroke-linecap:square"
       id="rect483"
       width="35.008888"
       height="40.313263"
       x="8.445487"
       y="172.42607" />
    <rect
       style="display:none;fill:#26adec;fill-opacity:0.534884;stroke:none;stroke-width:2.2;stroke-linecap:square"
       id="rect483-8"
       width="35.008888"
       height="40.313263"
       x="47.470543"
       y="172.42607" />
    <path
       id="rect1222"
       style="display:none;fill:#26adec;fill-opacity:0.534884;stroke-width:2.19999;stroke-linecap:square"
       d="m 18.504694,172.42601 c -5.555604,0 -10.0592147,4.54188 -10.0592147,10.09749 0,3.597 1.8883857,6.75249 4.7273717,8.53068 l 21.833468,9.36372 c 0.687956,0.49924 1.135717,1.30921 1.135717,2.22425 0,1.5171 -1.229733,2.74705 -2.746821,2.74705 l -19.390067,-2.2e-4 -5.5596687,7.35045 H 33.395215 c 5.555604,0 10.059215,-4.5419 10.059215,-10.0975 0,-3.6217 -1.914319,-6.79586 -4.785905,-8.56718 L 16.83795,184.70636 c -0.65641,-0.50199 -1.080077,-1.29289 -1.080077,-2.18308 0,-1.5171 1.229733,-2.74704 2.746821,-2.74704 l 19.390067,2.2e-4 5.559669,-7.35045 z"
       sodipodi:nodetypes="ssccscccssccscccs" />
    <path
       id="rect1222-3"
       style="display:inline;fill:#3a97ed;fill-opacity:1;stroke-width:2.19999;stroke-linecap:square"
       d="m 18.504814,172.42567 c -5.555595,0 -10.0593347,4.54197 -10.0593347,10.09757 0,3.59699 1.8883787,6.75256 4.7273597,8.53075 l 12.97957,5.56658 -9.31416,-11.91452 c -0.656409,-0.50198 -1.080555,-1.29262 -1.080555,-2.18281 0,-1.51709 1.230033,-2.74712 2.74712,-2.74712 h 19.390031 l 5.559867,-7.35045 z m 39.025008,5.1e-4 c -5.555582,0 -10.059335,4.54199 -10.059335,10.09758 v 20.11815 c 0,5.55556 4.503753,10.09757 10.059335,10.09757 h 14.890564 c 5.55558,0 10.058817,-4.54201 10.058817,-10.09757 v -20.11815 c 0,-5.55559 -4.503237,-10.09758 -10.058817,-10.09758 z m 28.965674,0 v 40.3133 h 24.949894 c 5.55559,0 10.05934,-4.54203 10.05934,-10.09757 v -20.11815 c 0,-5.55559 -4.50375,-10.09758 -10.05934,-10.09758 z m 49.084344,0 c -5.55559,0 -10.05934,4.54199 -10.05934,10.09758 v 20.11815 c 0,5.55554 4.50375,10.09757 10.05934,10.09757 h 24.9499 l -5.55987,-7.35045 h -19.39003 c -1.51709,0 -2.74712,-1.23002 -2.74712,-2.74712 v -6.38411 h 16.1215 l -5.55987,-7.35045 h -10.56163 v -6.38411 c 0,-1.5171 1.23003,-2.74712 2.74712,-2.74712 l 19.39003,5.2e-4 5.55987,-7.35046 z m 28.92743,0 0.0382,30.21573 c 0,5.55554 4.50375,10.09757 10.05934,10.09757 h 24.94989 l -5.55986,-7.35045 h -19.39003 c -1.51709,0 -2.74712,-1.23002 -2.74712,-2.74712 v -24.65586 z m -106.977448,7.34994 h 14.890564 c 1.517086,0 2.746602,1.23002 2.746602,2.74712 v 20.11867 c 0,1.5171 -1.229516,2.74712 -2.746602,2.74712 H 57.529822 c -1.517087,0 -2.747119,-1.23002 -2.747119,-2.74712 v -20.11867 c 0,-1.5171 1.230032,-2.74712 2.747119,-2.74712 z m 53.915568,0 c 1.51709,0 2.74661,1.23002 2.74661,2.74712 v 6.38411 H 93.807711 v -9.13071 z m -85.714144,8.74675 9.275403,11.89489 c 0.687955,0.49923 1.135331,1.30911 1.135331,2.22415 0,1.51709 -1.229517,2.74712 -2.746602,2.74712 H 14.005347 l -5.5598677,7.35045 H 33.395378 c 5.555593,0 10.059334,-4.54199 10.059334,-10.09757 0,-3.62171 -1.914692,-6.79612 -4.786271,-8.56744 z m 68.076465,7.73493 H 114.192 v 6.38411 c 0,1.5171 -1.22952,2.74712 -2.74661,2.74712 H 93.807711 Z" />
  </g>
</svg>
