<?xml version="1.0" encoding="UTF-8" standalone="no"?>
<!-- Created with Inkscape (http://www.inkscape.org/) -->

<svg
   width="71.367218mm"
   height="70.379166mm"
   viewBox="0 0 71.367218 70.379166"
   version="1.1"
   id="svg5"
   xmlns:inkscape="http://www.inkscape.org/namespaces/inkscape"
   xmlns:sodipodi="http://sodipodi.sourceforge.net/DTD/sodipodi-0.dtd"
   xmlns="http://www.w3.org/2000/svg"
   xmlns:svg="http://www.w3.org/2000/svg">
  <sodipodi:namedview
     id="namedview7"
     pagecolor="#ffffff"
     bordercolor="#000000"
     borderopacity="0.25"
     inkscape:showpageshadow="2"
     inkscape:pageopacity="0.0"
     inkscape:pagecheckerboard="0"
     inkscape:deskcolor="#d1d1d1"
     inkscape:document-units="mm"
     showgrid="false" />
  <defs
     id="defs2" />
  <g
     inkscape:label="Layer 1"
     inkscape:groupmode="layer"
     id="layer1"
     transform="translate(-89.836898,-94.932721)">
    <rect
       style="fill:#000000;fill-opacity:1;stroke:none;stroke-width:2.2;stroke-linecap:square"
       id="rect1659"
       width="208"
       height="208"
       x="0"
       y="88.582718" />
    <path
       id="circle1666"
       style="fill:#3a97ed;fill-opacity:1;stroke-width:2.2;stroke-linecap:square"
       d="m 96.582735,94.932721 c -3.725596,6.8e-5 -6.745772,3.020243 -6.745841,6.745839 0.006,3.66598 0.006,53.22151 0,56.88749 6.8e-5,3.7256 3.020244,6.74577 6.745841,6.74584 3.003521,-0.0111 54.871695,-0.0113 57.875025,0 3.7258,2.1e-4 6.74628,-3.02004 6.74635,-6.74584 -0.0117,-3.08213 -0.0117,-53.80536 0,-56.88749 -7e-5,-3.725795 -3.02055,-6.746052 -6.74635,-6.745839 -2.85715,0.0022 -55.017683,0.002 -57.875025,0 z"
       sodipodi:nodetypes="ccccccccc" />
    <path
       id="path1684"
       style="fill:#000000;fill-opacity:1;stroke-width:2.2;stroke-linecap:square"
       d="m 154.01172,99.675781 c -19.28234,0.04421 -38.5652,0.0081 -57.847658,0.07422 -1.317699,0.300669 -1.827166,1.861749 -1.576047,3.062889 0.0512,18.77067 -0.05833,37.54186 0.109251,56.31211 0.403793,1.29635 1.979749,1.67054 3.172265,1.41796 19.002479,-0.002 38.004999,0.009 57.007419,-0.0488 1.37393,-0.32305 1.84041,-1.9793 1.55859,-3.21328 -0.002,-18.67826 0.009,-37.35656 -0.0488,-56.03477 -0.23379,-1.0312 -1.35796,-1.688947 -2.375,-1.570308 z" />
    <path
       id="path1696"
       style="display:inline;fill:#3a97ed;fill-opacity:1;stroke-width:2.19999;stroke-linecap:square"
       d="m 116.80478,106.52602 c -6.50362,0 -11.77575,5.31692 -11.77575,11.82056 0,4.21078 2.21063,7.90473 5.53406,9.98636 l 15.1945,6.51655 -10.90398,-13.94758 c -0.76842,-0.58764 -1.26439,-1.51351 -1.26439,-2.5556 0,-1.77597 1.43959,-3.2158 3.21556,-3.2158 l 22.69873,2.5e-4 6.50847,-8.60474 z m 8.45987,18.84358 10.85762,13.9249 c 0.80535,0.58443 1.32952,1.53263 1.32952,2.60381 0,1.77597 -1.43959,3.2158 -3.21554,3.2158 l -22.69876,-2.5e-4 -6.50846,8.60474 h 29.20722 c 6.5036,0 11.77573,-5.31694 11.77573,-11.82054 0,-4.23973 -2.24098,-7.95553 -5.60258,-10.02912 z"
       sodipodi:nodetypes="sscccscccsccscccsscc" />
  </g>
</svg>
